<svg xmlns="http://www.w3.org/2000/svg" viewBox="0 0 129.66 39.17"><defs><style>.cls-1{fill:#fff;}.cls-2{fill:#c19d63;}</style></defs><title>Ресурс 28</title><g id="Шар_2" data-name="Шар 2"><g id="Layer_1" data-name="Layer 1"><path class="cls-1" d="M6.86,15.91a4,4,0,0,0,3.28-1.19,5.8,5.8,0,0,0,.94-3.67,5.85,5.85,0,0,0-.94-3.68A4.07,4.07,0,0,0,6.86,6.19H4.11v9.71ZM13.62,12a3.62,3.62,0,0,1-1.89,3.49,10.38,10.38,0,0,1-4.87.86H4.11v7.61H5.56v.42H0v-.42H1.51V6.2H0V5.78H6.86a10.68,10.68,0,0,1,4.87.84,3.63,3.63,0,0,1,1.89,3.49Z"/><path class="cls-1" d="M21.16,6.19V15h2.67a4.6,4.6,0,0,0,3.3-.91c.61-.61.92-1.75.92-3.42v-.17q0-4.32-4.13-4.32Zm1.45,18.16H17.05v-.42h1.51V6.19H17.05V5.77h7.87q5.67,0,5.67,3.75v2.16a3.28,3.28,0,0,1-1.06,2.71,5.37,5.37,0,0,1-2.9.94,5.07,5.07,0,0,1,2.84,1.54,3.63,3.63,0,0,1,.84,2.41V22.8c0,.87.29,1.3.89,1.3s.92-.41.92-1.24v-.18h.45v.18a1.77,1.77,0,0,1-.52,1.44,2.46,2.46,0,0,1-1.54.38,2.58,2.58,0,0,1-2-.67,3.37,3.37,0,0,1-.56-2.19v-1.3a5,5,0,0,0-1.46-3.9,5.72,5.72,0,0,0-3.87-1.19H21.16v8.5h1.45Z"/><path class="cls-1" d="M46.69,10.11a4.72,4.72,0,0,0-.8-2.89,3.57,3.57,0,0,0-3-1.29,3.55,3.55,0,0,0-3,1.29A4.72,4.72,0,0,0,39,10.11V20.35c0,2.6,1.27,3.91,3.81,3.91s3.84-1.31,3.84-3.91ZM42.85,5.57A6.7,6.7,0,0,1,48,7.44a6.3,6.3,0,0,1,1.57,4.49v6.6A5.92,5.92,0,0,1,48,22.89a7,7,0,0,1-5.15,1.71,7,7,0,0,1-5.14-1.71,5.92,5.92,0,0,1-1.56-4.36v-6.6a6.29,6.29,0,0,1,1.56-4.49,6.71,6.71,0,0,1,5.14-1.87"/><polygon class="cls-1" points="68.92 5.78 68.92 6.2 67.26 6.2 61.68 24.36 59.39 24.36 53.7 6.2 52.19 6.2 52.19 5.78 57.75 5.78 57.75 6.2 56.3 6.2 61.57 23.02 66.74 6.2 64.92 6.2 64.92 5.78 68.92 5.78"/><path class="cls-1" d="M73.74,3.71c1.09-1.1,1.79-1.83,2.12-2.17l.33-.33.34-.33c.25-.24.49-.44.71-.62A1.28,1.28,0,0,1,78,0a1,1,0,0,1,.6.21l.06.05a.72.72,0,0,1,.19.54,1,1,0,0,1-.41.61c-.23.17-.49.34-.79.53l-.44.25-.42.23L74,4ZM71.1,18h6.73L74.43,7.11Zm5.51-12.2L82.3,23.94h1.51v.42H78.25v-.42H79.7L78,18.4H71l-1.7,5.54h1.82v.42h-4v-.42h1.66L74.32,5.78Z"/><path class="cls-1" d="M91,6.19V15h2.67A4.6,4.6,0,0,0,97,14.1c.61-.61.92-1.75.92-3.42v-.17q0-4.32-4.13-4.32Zm1.45,18.16H86.93v-.42h1.51V6.19H86.93V5.77H94.8q5.67,0,5.67,3.75v2.16a3.28,3.28,0,0,1-1.06,2.71,5.37,5.37,0,0,1-2.9.94,5.07,5.07,0,0,1,2.84,1.54,3.63,3.63,0,0,1,.84,2.41V22.8c0,.87.3,1.3.89,1.3s.92-.41.92-1.24v-.18h.45v.18a1.77,1.77,0,0,1-.52,1.44,2.46,2.46,0,0,1-1.54.38,2.58,2.58,0,0,1-2-.67,3.37,3.37,0,0,1-.56-2.19v-1.3a5,5,0,0,0-1.46-3.9,5.72,5.72,0,0,0-3.87-1.19H91v8.5h1.45Z"/><polygon class="cls-1" points="110.95 5.78 110.95 6.2 109.39 6.2 109.39 23.94 110.95 23.94 110.95 24.36 105.23 24.36 105.23 23.94 106.78 23.94 106.78 6.2 105.23 6.2 105.23 5.78 110.95 5.78"/><polygon class="cls-1" points="129.66 5.78 129.66 6.2 127.92 6.2 127.92 24.36 126.79 24.36 117.08 7.44 117.08 23.94 118.85 23.94 118.85 24.36 114.84 24.36 114.84 23.94 116.59 23.94 116.59 6.2 114.84 6.2 114.84 5.78 119.19 5.78 127.42 19.64 127.42 6.2 125.67 6.2 125.67 5.78 129.66 5.78"/><path class="cls-2" d="M36.56,36.34v2.53L37,39v.07H35.47V39l.45-.12V34l-.45-.11v-.08h3.05s0,.1,0,.16,0,.12,0,.2v.46c0,.06,0,.13,0,.19s0,.14,0,.2h-.07a1.65,1.65,0,0,1-.33-.47,1.42,1.42,0,0,1-.13-.59H36.56v2.27h.72l.34-.68h.07V37h-.07l-.34-.68Z"/><path class="cls-2" d="M42.41,37.55a1.78,1.78,0,0,1-.35,1.24,1.28,1.28,0,0,1-1,.38,1.48,1.48,0,0,1-1.62-1.62V34L39,33.85v-.08h1.54v.08l-.45.11v3.59a1.72,1.72,0,0,0,.3,1.12,1,1,0,0,0,.76.35,1.3,1.3,0,0,0,.46-.08,1,1,0,0,0,.36-.27,1.32,1.32,0,0,0,.23-.46,2.48,2.48,0,0,0,.08-.66V34l-.49-.19v-.08H42.9v.08l-.49.19Z"/><path class="cls-2" d="M46,38.91a1.31,1.31,0,0,1,.13-.59,1.56,1.56,0,0,1,.32-.47h.08a1.49,1.49,0,0,0,0,.21c0,.06,0,.12,0,.19v.46c0,.07,0,.14,0,.19a.7.7,0,0,0,0,.16H43.39V39l.46-.11V34l-.46-.11v-.08h3.06s0,.1,0,.16,0,.12,0,.19v.47c0,.06,0,.13,0,.19s0,.14,0,.2h-.07a1.8,1.8,0,0,1-.33-.47,1.41,1.41,0,0,1-.13-.58H44.49v2.26h.72l.34-.68h.07V37h-.07l-.34-.68h-.72v2.57Z"/><path class="cls-2" d="M48.3,38.91h1.36a1.45,1.45,0,0,1,.13-.59,1.8,1.8,0,0,1,.33-.47h.07a1.49,1.49,0,0,0,0,.21,1.15,1.15,0,0,0,0,.19c0,.07,0,.14,0,.21s0,.18,0,.25a1.09,1.09,0,0,0,0,.19.7.7,0,0,0,0,.16h-3V39l.45-.11V34l-.45-.11v-.08h1.55v.08L48.3,34Z"/><polygon class="cls-2" points="54.95 33.77 54.95 33.85 55.44 34.04 54.4 36.72 53.33 33.96 53.78 33.85 53.78 33.77 52.19 33.77 52.19 33.85 52.65 33.96 53.82 36.98 53.82 38.87 53.36 38.99 53.36 39.06 54.91 39.06 54.91 38.99 54.46 38.87 54.46 36.95 55.59 34.04 56.08 33.85 56.08 33.77 54.95 33.77"/><path class="cls-2" d="M58.84,36.42a7.63,7.63,0,0,0-.09-1.29,3.4,3.4,0,0,0-.25-.81,1.21,1.21,0,0,0-.35-.43.68.68,0,0,0-.37-.12.7.7,0,0,0-.37.12,1.2,1.2,0,0,0-.34.43,3,3,0,0,0-.25.81,7.5,7.5,0,0,0-.1,1.29,7.38,7.38,0,0,0,.1,1.28,3,3,0,0,0,.25.82,1.07,1.07,0,0,0,.34.42.7.7,0,0,0,.37.12.68.68,0,0,0,.37-.12,1.09,1.09,0,0,0,.35-.42,3.35,3.35,0,0,0,.25-.82,7.51,7.51,0,0,0,.09-1.28m.72,0a4,4,0,0,1-.16,1.21,2.75,2.75,0,0,1-.41.86,1.58,1.58,0,0,1-.56.51,1.32,1.32,0,0,1-.65.17,1.28,1.28,0,0,1-.64-.17,1.7,1.7,0,0,1-.57-.51,3,3,0,0,1-.41-.86,5,5,0,0,1,0-2.43,3,3,0,0,1,.41-.86,1.7,1.7,0,0,1,.57-.51,1.39,1.39,0,0,1,.64-.17,1.43,1.43,0,0,1,.65.17,1.58,1.58,0,0,1,.56.51,2.75,2.75,0,0,1,.41.86,4.06,4.06,0,0,1,.16,1.22"/><path class="cls-2" d="M63.52,37.55a1.78,1.78,0,0,1-.35,1.24,1.28,1.28,0,0,1-1,.38,1.48,1.48,0,0,1-1.62-1.62V34l-.45-.11v-.08h1.54v.08l-.45.11v3.59a1.72,1.72,0,0,0,.3,1.12,1,1,0,0,0,.76.35,1.34,1.34,0,0,0,.46-.08,1,1,0,0,0,.36-.27,1.32,1.32,0,0,0,.23-.46,2.48,2.48,0,0,0,.08-.66V34l-.49-.19v-.08H64v.08l-.49.19Z"/><path class="cls-2" d="M67.07,35.1a1.06,1.06,0,0,0-1.17-1.18h-.3v2.35h.3a1.18,1.18,0,0,0,.87-.31,1.17,1.17,0,0,0,.3-.86M65.9,33.77a3,3,0,0,1,.84.11,1.81,1.81,0,0,1,.59.29,1.16,1.16,0,0,1,.35.42,1.19,1.19,0,0,1,.11.51,1.12,1.12,0,0,1-.06.38,1.31,1.31,0,0,1-.17.31,1.26,1.26,0,0,1-.24.22,1.82,1.82,0,0,1-.27.15,2.12,2.12,0,0,1-.73.18,2.2,2.2,0,0,1,.6.16,1.42,1.42,0,0,1,.44.31.9.9,0,0,1,.24.55l.15,1.32a.43.43,0,0,0,.07.21.17.17,0,0,0,.12.06.13.13,0,0,0,.08,0l.08-.06a.86.86,0,0,0,.07-.1l.07.07a.46.46,0,0,1-.13.18.61.61,0,0,1-.43.16.64.64,0,0,1-.42-.14.58.58,0,0,1-.19-.35l-.15-1.32a1.51,1.51,0,0,0-.1-.43.65.65,0,0,0-.18-.29.64.64,0,0,0-.3-.17,1.44,1.44,0,0,0-.44,0h-.3v2.45l.45.11v.08H64.5V39l.46-.11V34l-.46-.11v-.08Z"/><path class="cls-2" d="M71.57,37h.26a1.16,1.16,0,0,0,.92-.36,1.75,1.75,0,0,0,.33-1.19,1.72,1.72,0,0,0-.33-1.18,1.16,1.16,0,0,0-.92-.36h-.26Zm0,.15v1.7L72,39v.08H70.47V39l.45-.11V34l-.45-.11v-.08h1.36a2.74,2.74,0,0,1,.84.13,1.93,1.93,0,0,1,.61.36,1.52,1.52,0,0,1,.38.53,1.72,1.72,0,0,1,.13.68,1.65,1.65,0,0,1-.13.68,1.47,1.47,0,0,1-.38.54,1.74,1.74,0,0,1-.61.35,2.47,2.47,0,0,1-.84.13Z"/><path class="cls-2" d="M75.3,34.87l.75,2.5H74.59Zm.19-1.21L74,38.8l-.49.19v.07h1.13V39l-.49-.19.38-1.29H76.1l.41,1.36-.45.12v.07h1.59V39l-.46-.12-1.58-5.21Z"/><path class="cls-2" d="M78.33,34.76a.83.83,0,0,0,.18.53,2.25,2.25,0,0,0,.45.41,6.62,6.62,0,0,0,.59.37,4.23,4.23,0,0,1,.6.41,2.12,2.12,0,0,1,.45.54,1.5,1.5,0,0,1,.18.76,1.46,1.46,0,0,1-.11.55,1.35,1.35,0,0,1-.29.44,1.31,1.31,0,0,1-.46.3,1.57,1.57,0,0,1-.58.1,2.31,2.31,0,0,1-.49-.05,1.51,1.51,0,0,1-.34-.14,1,1,0,0,1-.26-.18,1,1,0,0,1-.16.21.56.56,0,0,1-.22.13h-.11c0-.08,0-.15,0-.23s0-.14,0-.22,0-.16,0-.23,0-.17,0-.26,0-.16,0-.23,0-.16,0-.23h.11a2.18,2.18,0,0,0,.5.95,1.22,1.22,0,0,0,.9.33,1,1,0,0,0,.74-.29,1.13,1.13,0,0,0,.28-.8.84.84,0,0,0-.18-.54,2.35,2.35,0,0,0-.46-.41c-.18-.12-.37-.25-.59-.37a3.45,3.45,0,0,1-.59-.41,2,2,0,0,1-.45-.54,1.39,1.39,0,0,1-.19-.75,1.34,1.34,0,0,1,.1-.49A1.36,1.36,0,0,1,78.2,34a1.22,1.22,0,0,1,.41-.27,1.36,1.36,0,0,1,.91,0,1.32,1.32,0,0,1,.29.13,1.18,1.18,0,0,1,.25.19.83.83,0,0,1,.16-.21.46.46,0,0,1,.22-.13h.11c0,.07,0,.15,0,.23s0,.14,0,.22v.48c0,.08,0,.16,0,.23s0,.16,0,.24h-.11a2.39,2.39,0,0,0-.48-1,1,1,0,0,0-.77-.33.82.82,0,0,0-.61.26.93.93,0,0,0-.25.69"/><path class="cls-2" d="M81.69,34.76a.83.83,0,0,0,.18.53,2.25,2.25,0,0,0,.45.41,6.62,6.62,0,0,0,.59.37,3.73,3.73,0,0,1,.6.41A2.12,2.12,0,0,1,84,37a1.5,1.5,0,0,1,.18.76,1.45,1.45,0,0,1-.1.55,1.37,1.37,0,0,1-.3.44,1.31,1.31,0,0,1-.46.3,1.56,1.56,0,0,1-.57.1,2.17,2.17,0,0,1-.49-.05,1.2,1.2,0,0,1-.34-.14.91.91,0,0,1-.27-.18,1,1,0,0,1-.16.21.56.56,0,0,1-.22.13h-.11c0-.08,0-.15,0-.23s0-.14,0-.22a1.85,1.85,0,0,0,0-.23,2.26,2.26,0,0,0,0-.26c0-.08,0-.16,0-.23s0-.16,0-.23h.11a2.08,2.08,0,0,0,.51.95,1.18,1.18,0,0,0,.89.33,1,1,0,0,0,.74-.29,1.08,1.08,0,0,0,.28-.8.84.84,0,0,0-.18-.54A2.59,2.59,0,0,0,83,37c-.19-.12-.38-.25-.6-.37a3.45,3.45,0,0,1-.59-.41,2,2,0,0,1-.45-.54,1.49,1.49,0,0,1-.18-.75,1.33,1.33,0,0,1,.09-.49,1.21,1.21,0,0,1,.28-.39,1.09,1.09,0,0,1,.4-.27,1.36,1.36,0,0,1,.91,0,1.32,1.32,0,0,1,.29.13,1,1,0,0,1,.25.19.68.68,0,0,1,.17-.21.43.43,0,0,1,.21-.13h.11c0,.07,0,.15,0,.23s0,.14,0,.22v.48c0,.08,0,.16,0,.23s0,.16,0,.24H83.8a2.27,2.27,0,0,0-.48-1,1,1,0,0,0-.76-.33.82.82,0,0,0-.62.26.93.93,0,0,0-.25.69"/><polygon class="cls-2" points="84.71 33.77 84.71 33.85 85.16 33.96 85.16 38.87 84.71 38.99 84.71 39.06 86.26 39.06 86.26 38.99 85.8 38.87 85.8 33.96 86.26 33.85 86.26 33.77 84.71 33.77"/><path class="cls-2" d="M89.73,36.42a7.63,7.63,0,0,0-.09-1.29,3.4,3.4,0,0,0-.25-.81,1.21,1.21,0,0,0-.35-.43.68.68,0,0,0-.37-.12.7.7,0,0,0-.37.12,1.2,1.2,0,0,0-.34.43,3,3,0,0,0-.25.81,7.63,7.63,0,0,0-.09,1.29,7.51,7.51,0,0,0,.09,1.28,3,3,0,0,0,.25.82,1.07,1.07,0,0,0,.34.42.7.7,0,0,0,.37.12.68.68,0,0,0,.37-.12,1.09,1.09,0,0,0,.35-.42,3.35,3.35,0,0,0,.25-.82,7.51,7.51,0,0,0,.09-1.28m.72,0a4,4,0,0,1-.16,1.21,3,3,0,0,1-.4.86,1.7,1.7,0,0,1-.57.51,1.32,1.32,0,0,1-.65.17A1.28,1.28,0,0,1,88,39a1.7,1.7,0,0,1-.57-.51,3,3,0,0,1-.41-.86,5,5,0,0,1,0-2.43,3,3,0,0,1,.41-.86,1.7,1.7,0,0,1,.57-.51,1.39,1.39,0,0,1,.64-.17,1.43,1.43,0,0,1,.65.17,1.7,1.7,0,0,1,.57.51,3,3,0,0,1,.4.86,4.06,4.06,0,0,1,.16,1.22"/><polygon class="cls-2" points="93.73 33.77 93.73 33.85 94.22 34.04 94.22 37.74 92.07 33.77 91.05 33.77 91.05 33.85 91.54 34 91.54 38.8 91.05 38.99 91.05 39.06 92.19 39.06 92.19 38.99 91.69 38.8 91.69 34.42 94.26 39.14 94.38 39.14 94.38 34.04 94.87 33.85 94.87 33.77 93.73 33.77"/></g></g></svg>